<mxfile host="app.diagrams.net" modified="2024-12-29T09:21:24.923Z" agent="Mozilla/5.0 (Macintosh; Intel Mac OS X 10_15_7) AppleWebKit/537.36 (KHTML, like Gecko) Chrome/131.0.0.0 Safari/537.36" version="24.6.4" etag="vD3_640bS3l9uZlFU2Kw" type="github">
  <diagram name="第 1 页" id="jQEneLdSp_8NXOxv7Rjd">
    <mxGraphModel>
      <root>
        <mxCell id="0" />
        <mxCell id="1" parent="0" />
      </root>
    </mxGraphModel>
  </diagram>
</mxfile>
